<svg xmlns="http://www.w3.org/2000/svg" viewBox="0 0 180 27" xmlns:v="https://vecta.io/nano"><g fill="#006d46"><path d="M148.16 12.8c0-2.22 1.17-3.69 3.33-3.69a2.42 2.42 0 0 1 2.72 2.5l-1.35.12c-.08-1-.5-1.4-1.39-1.4-1.12 0-1.79.73-1.79 2.39s.6 2.38 1.69 2.38a1.36 1.36 0 0 0 1.49-1.25l1.33.23a2.61 2.61 0 0 1-2.84 2.24c-2.29 0-3.19-1.36-3.19-3.52m12.75 3.41h-1.48v-2.86h-2.65v2.86h-1.47V9.23h1.47v2.83h2.65V9.23h1.48v6.98zm4.09-5.58h0l-.85 2.7h1.75zm.91-1.4l2.44 7h-1.61l-.58-1.7h-2.3l-.53 1.7h-1.52l2.26-7zm3.37 0h1.47v6.98h-1.47zm6.98 6.98l-2.66-4.93v4.93h-1.35V9.23h1.76l2.61 4.94V9.23h1.34v6.98h-1.7zm-64.34-5.4c0 1.45 3.59.56 3.59 3.12 0 1.58-1.27 2.21-2.65 2.21s-2.54-.41-2.67-2.22l1.34-.2c.11.67.36 1.24 1.37 1.24.61 0 1.15-.21 1.15-.86 0-1.45-3.6-.44-3.6-3.08 0-1.36 1.13-2.1 2.52-2.1 1.23 0 2.36.38 2.46 2l-1.34.16a1 1 0 0 0-1.14-1c-.71 0-1 .29-1 .74m8.66 2.47V9h1.47v4.47c0 1.85-1.06 2.63-2.79 2.63-1.91 0-2.72-.85-2.72-2.67V9h1.48v4.23c0 1.08.28 1.62 1.3 1.62s1.26-.46 1.26-1.6m4.98-.68c.76 0 1.36-.22 1.36-1.24s-.53-1.09-1.24-1.09H125v2.33zM125 16h-1.46V9h2.62a2 2 0 0 1 2.3 2.18c0 1.68-.91 2.55-2.7 2.55H125zm6.52-3.43c.76 0 1.36-.22 1.36-1.24s-.53-1.09-1.24-1.09h-.71v2.33zm-.59 3.43h-1.46V9h2.62a2 2 0 0 1 2.29 2.18c0 1.68-.9 2.55-2.7 2.55h-.75zm5.94-1.23h2.96v1.25h-4.43V9.04h1.47v5.73zm6.17 1.25h-1.48v-2.61l-2.39-4.37h1.61l1.51 2.99h.05l1.46-2.99h1.49l-2.25 4.35v2.63zm-24.92 9.66h-1.37v-5.47h-.04l-1.63 5.47h-1.33l-1.57-5.48h-.04v5.48h-1.35V18.7h2.2l1.46 5.1h.04l1.45-5.1h2.18v6.98zm4.12-5.58h0l-.85 2.7h1.75zm.91-1.4l2.44 7H124l-.59-1.7h-2.3l-.54 1.69h-1.52l2.27-7zm7.36 6.98l-2.66-4.92v4.92h-1.35V18.7h1.76l2.61 4.95V18.7h1.34v6.98h-1.7zm5.81-5.58h0l-.85 2.7h1.74zm.91-1.4l2.44 7h-1.61l-.57-1.7h-2.3l-.54 1.69h-1.51l2.26-7zm7.7 6.12a2.15 2.15 0 0 1-2 1c-2.08 0-2.93-1.46-2.93-3.49 0-2.26 1.15-3.73 3.35-3.73a2.42 2.42 0 0 1 2.75 2.4l-1.37.13c-.08-.74-.39-1.35-1.39-1.35-1.21 0-1.79.88-1.79 2.37 0 1.66.53 2.43 1.75 2.43a1.24 1.24 0 0 0 1.41-1.21v-.25h-1.26v-1.07h2.71v3.63h-1.07zm4.11-.39h3.08v1.25h-4.55V18.7h4.38v1.25h-2.91v1.64h2.74v1.21h-2.74v1.63zm11.58 1.25h-1.37v-5.47h-.04l-1.63 5.47h-1.33l-1.57-5.48h-.04v5.48h-1.34V18.7h2.19l1.46 5.1h.04l1.45-5.1h2.18v6.98zm2.99-1.25h3.08v1.25h-4.55V18.7h4.38v1.25h-2.91v1.64h2.74v1.21h-2.74v1.63zm8.27 1.25l-2.67-4.92v4.92h-1.34V18.7h1.75l2.62 4.95V18.7h1.33v6.98h-1.69zm2.59-6.98v1.26h2.04v5.72h1.48v-5.72H180V18.7h-5.53zM112 2.83h0l-.49 1.55h1zm.52-.81l1.41 4H113l-.33-1h-1.32L111 6h-.88l1.31-4zm2.64.98c0 .84 2.07.32 2.07 1.8 0 .91-.73 1.27-1.53 1.27s-1.46-.24-1.53-1.28l.77-.11a.71.71 0 0 0 .79.71c.35 0 .66-.12.66-.49 0-.84-2.08-.26-2.08-1.78 0-.78.65-1.21 1.46-1.21s1.35.22 1.41 1.18l-.77.09c0-.38-.19-.61-.66-.61s-.59.17-.59.43"/><path d="M118.66 3c0 .84 2.07.32 2.07 1.8 0 .91-.73 1.27-1.52 1.27s-1.47-.24-1.54-1.28l.77-.11a.71.71 0 0 0 .79.71c.35 0 .66-.12.66-.49 0-.84-2.07-.26-2.07-1.78 0-.78.64-1.21 1.45-1.21s1.35.22 1.41 1.18l-.77.09a.57.57 0 0 0-.65-.61c-.41 0-.6.17-.6.43m5.45 1c0-.93-.36-1.35-1-1.35s-1 .43-1 1.36.39 1.36 1 1.36 1-.38 1-1.37m-2.89 0a1.89 1.89 0 0 1 1.94-2c1.29 0 1.82.91 1.82 2 0 1.31-.62 2.14-1.91 2.14s-1.85-.86-1.85-2.06m4.31 0A1.87 1.87 0 0 1 127.45 2 1.39 1.39 0 0 1 129 3.39l-.77.07c-.05-.57-.29-.8-.81-.8s-1 .42-1 1.37.35 1.37 1 1.37a.79.79 0 0 0 .87-.72l.76.13a1.5 1.5 0 0 1-1.64 1.3c-1.32 0-1.83-.79-1.83-2m4.1-2.09h.85v4.02h-.85zm3.25.81h0l-.49 1.55h1zm.52-.81l1.41 4h-.93l-.33-1h-1.32L132 6h-.87l1.3-4zm2.4 4.02V2.75h-1.17v-.73h3.18v.73h-1.16v3.29h-.85zm2.57-4.02h.85v4.02h-.85zM142.88 4c0-.93-.36-1.35-1-1.35s-1 .43-1 1.36.38 1.36 1 1.36 1-.38 1-1.37m-2.89 0a1.88 1.88 0 0 1 1.93-2 1.77 1.77 0 0 1 1.83 2c0 1.31-.62 2.14-1.91 2.14S140 5.25 140 4.05m6.78 1.99l-1.53-2.83v2.83h-.78V2.02h1.01l1.51 2.85V2.02h.77v4.02h-.98zm3.86 0h-.84V2.02h2.5v.72h-1.66v1.02h1.53v.7h-1.53v1.58zM155.63 4c0-.93-.36-1.35-1-1.35s-1 .43-1 1.36.38 1.36 1 1.36 1-.38 1-1.37m-2.89 0a1.88 1.88 0 0 1 1.94-2c1.29 0 1.82.91 1.82 2 0 1.31-.62 2.14-1.91 2.14s-1.85-.86-1.85-2.06m5.76-.24c.39 0 .72-.15.72-.6s-.24-.53-.69-.53h-.47v1.13zM160.31 6h-.92l-.78-1.52h-.55V6h-.84V2h1.55c1 0 1.32.54 1.32 1.14a1.16 1.16 0 0 1-.68 1.14zM6.37 16.67h11.71v2.66H6.37zM0 1.31v6.35h18.08v2.66H0v15.36h24.45V1.31zm80.72 0v24.37h6.37V7.66h2.68v18.02h6.37V7.66h2.67v18.02h6.37V1.31H80.72zM51.3 10.32l-3.31 6.35h-20.3V1.32h23.26v6.34H34.06v2.66H51.3zm26.19 9.02v6.34H55.96l-2.37-5.06 3.76-7.18 3.02 5.9h17.12z"/></g><path d="M73.93 9.13V7.66H60.37l-3.02 5.78-3.76 7.18-2.64 5.06h-19.7V27l-5.13-4.57 5.13-4.55v1.46h15.34l1.4-2.67 3.31-6.35 4.71-9h17.92V0l5.13 4.57-5.13 4.56z" fill="#45a041"/></svg>